<mxfile host="app.diagrams.net" modified="2023-11-09T12:26:56.601Z" agent="Mozilla/5.0 (Windows NT 10.0; Win64; x64) AppleWebKit/537.36 (KHTML, like Gecko) Chrome/119.0.0.0 Safari/537.36 Edg/119.0.0.0" etag="nZhSKuD3YET3iCLMQ9sz" version="22.1.0" type="device">
  <diagram name="Assignment-1" id="c4acf3e9-155e-7222-9cf6-157b1a14988f">
    <mxGraphModel dx="1072" dy="473" grid="1" gridSize="10" guides="1" tooltips="1" connect="1" arrows="1" fold="1" page="1" pageScale="1" pageWidth="1100" pageHeight="850" background="none" math="0" shadow="0">
      <root>
        <mxCell id="0" />
        <mxCell id="1" parent="0" />
        <mxCell id="-s_bCXY057MsRby6d6ED-9" value="BASIC" style="swimlane;fontStyle=1;align=center;verticalAlign=top;childLayout=stackLayout;horizontal=1;startSize=26;horizontalStack=0;resizeParent=1;resizeParentMax=0;resizeLast=0;collapsible=1;marginBottom=0;" parent="1" vertex="1">
          <mxGeometry x="40" y="200" width="180" height="360" as="geometry" />
        </mxCell>
        <mxCell id="-s_bCXY057MsRby6d6ED-10" value="+ users: User&#xa;+ properties: Property&#xa;-  UserID: int&#xa;-  PropertyID: int&#xa;-  HostID: int&#xa;&#xa;" style="text;strokeColor=none;fillColor=none;align=left;verticalAlign=top;spacingLeft=4;spacingRight=4;overflow=hidden;rotatable=0;points=[[0,0.5],[1,0.5]];portConstraint=eastwest;" parent="-s_bCXY057MsRby6d6ED-9" vertex="1">
          <mxGeometry y="26" width="180" height="94" as="geometry" />
        </mxCell>
        <mxCell id="-s_bCXY057MsRby6d6ED-11" value="" style="line;strokeWidth=1;fillColor=none;align=left;verticalAlign=middle;spacingTop=-1;spacingLeft=3;spacingRight=3;rotatable=0;labelPosition=right;points=[];portConstraint=eastwest;strokeColor=inherit;" parent="-s_bCXY057MsRby6d6ED-9" vertex="1">
          <mxGeometry y="120" width="180" height="24" as="geometry" />
        </mxCell>
        <mxCell id="-s_bCXY057MsRby6d6ED-12" value="+ menu(void)&#xa;+ addUser(void): void&#xa;+ deleteUser(int): void&#xa;+ getUserDetails(int): void&#xa;+ addProperty(void): void&#xa;+ deleteProperty(int): void&#xa;+ getPropertyDetails(int): void&#xa;+ addBooking(int, int): void&#xa;+ getBookingCost(int,int): void&#xa;+ getUserBooking(int): void&#xa;+ listUsers()&#xa;+ listProperties()&#xa;+ exit()&#xa;-  getPropertyById(int): Property&#xa;" style="text;strokeColor=none;fillColor=none;align=left;verticalAlign=top;spacingLeft=4;spacingRight=4;overflow=hidden;rotatable=0;points=[[0,0.5],[1,0.5]];portConstraint=eastwest;" parent="-s_bCXY057MsRby6d6ED-9" vertex="1">
          <mxGeometry y="144" width="180" height="216" as="geometry" />
        </mxCell>
        <mxCell id="-s_bCXY057MsRby6d6ED-13" value="User" style="swimlane;fontStyle=1;align=center;verticalAlign=top;childLayout=stackLayout;horizontal=1;startSize=26;horizontalStack=0;resizeParent=1;resizeParentMax=0;resizeLast=0;collapsible=1;marginBottom=0;" parent="1" vertex="1">
          <mxGeometry x="350" width="185" height="210" as="geometry" />
        </mxCell>
        <mxCell id="-s_bCXY057MsRby6d6ED-14" value="- userId: int&#xa;- dateOfBirth: Date&#xa;- firstName: String&#xa;- lastName: String&#xa;- bookings: Booking" style="text;strokeColor=none;fillColor=none;align=left;verticalAlign=top;spacingLeft=4;spacingRight=4;overflow=hidden;rotatable=0;points=[[0,0.5],[1,0.5]];portConstraint=eastwest;" parent="-s_bCXY057MsRby6d6ED-13" vertex="1">
          <mxGeometry y="26" width="185" height="84" as="geometry" />
        </mxCell>
        <mxCell id="-s_bCXY057MsRby6d6ED-15" value="" style="line;strokeWidth=1;fillColor=none;align=left;verticalAlign=middle;spacingTop=-1;spacingLeft=3;spacingRight=3;rotatable=0;labelPosition=right;points=[];portConstraint=eastwest;strokeColor=inherit;" parent="-s_bCXY057MsRby6d6ED-13" vertex="1">
          <mxGeometry y="110" width="185" height="8" as="geometry" />
        </mxCell>
        <mxCell id="-s_bCXY057MsRby6d6ED-16" value="+ getters(): Datatype&#xa;+ setters(DataType): void&#xa;-  parseDate(String): Date&#xa;+ addBooking(Book): void&#xa;+ ListBooking(): void&#xa;+ getBooking(): Book&#xa;&#xa;&#xa;&#xa;" style="text;strokeColor=none;fillColor=none;align=left;verticalAlign=top;spacingLeft=4;spacingRight=4;overflow=hidden;rotatable=0;points=[[0,0.5],[1,0.5]];portConstraint=eastwest;" parent="-s_bCXY057MsRby6d6ED-13" vertex="1">
          <mxGeometry y="118" width="185" height="92" as="geometry" />
        </mxCell>
        <mxCell id="-s_bCXY057MsRby6d6ED-17" value="Booking" style="swimlane;fontStyle=1;align=center;verticalAlign=top;childLayout=stackLayout;horizontal=1;startSize=26;horizontalStack=0;resizeParent=1;resizeParentMax=0;resizeLast=0;collapsible=1;marginBottom=0;" parent="1" vertex="1">
          <mxGeometry x="350" y="260" width="160" height="190" as="geometry" />
        </mxCell>
        <mxCell id="-s_bCXY057MsRby6d6ED-18" value="- startDate: Date&#xa;- endDate: Date&#xa;- isPaid: boolean&#xa;- userId: int&#xa;- propertyId: int" style="text;strokeColor=none;fillColor=none;align=left;verticalAlign=top;spacingLeft=4;spacingRight=4;overflow=hidden;rotatable=0;points=[[0,0.5],[1,0.5]];portConstraint=eastwest;" parent="-s_bCXY057MsRby6d6ED-17" vertex="1">
          <mxGeometry y="26" width="160" height="84" as="geometry" />
        </mxCell>
        <mxCell id="-s_bCXY057MsRby6d6ED-19" value="" style="line;strokeWidth=1;fillColor=none;align=left;verticalAlign=middle;spacingTop=-1;spacingLeft=3;spacingRight=3;rotatable=0;labelPosition=right;points=[];portConstraint=eastwest;strokeColor=inherit;" parent="-s_bCXY057MsRby6d6ED-17" vertex="1">
          <mxGeometry y="110" width="160" height="8" as="geometry" />
        </mxCell>
        <mxCell id="-s_bCXY057MsRby6d6ED-20" value="+ getters(): Datatype&#xa;+ setters(DataType): void&#xa;+ totalCost(): float&#xa;-  parseDate(String): Date&#xa;&#xa;" style="text;strokeColor=none;fillColor=none;align=left;verticalAlign=top;spacingLeft=4;spacingRight=4;overflow=hidden;rotatable=0;points=[[0,0.5],[1,0.5]];portConstraint=eastwest;" parent="-s_bCXY057MsRby6d6ED-17" vertex="1">
          <mxGeometry y="118" width="160" height="72" as="geometry" />
        </mxCell>
        <mxCell id="-s_bCXY057MsRby6d6ED-21" value="Property" style="swimlane;fontStyle=1;align=center;verticalAlign=top;childLayout=stackLayout;horizontal=1;startSize=26;horizontalStack=0;resizeParent=1;resizeParentMax=0;resizeLast=0;collapsible=1;marginBottom=0;" parent="1" vertex="1">
          <mxGeometry x="350" y="560" width="210" height="180" as="geometry" />
        </mxCell>
        <mxCell id="-s_bCXY057MsRby6d6ED-22" value="- propertyId: int&#xa;- numberOfBedrooms: int&#xa;- numberOfRooms: int&#xa;- city: String&#xa;- pricePerDay: float&#xa;- host: Host&#xa;&#xa;" style="text;strokeColor=none;fillColor=none;align=left;verticalAlign=top;spacingLeft=4;spacingRight=4;overflow=hidden;rotatable=0;points=[[0,0.5],[1,0.5]];portConstraint=eastwest;" parent="-s_bCXY057MsRby6d6ED-21" vertex="1">
          <mxGeometry y="26" width="210" height="94" as="geometry" />
        </mxCell>
        <mxCell id="-s_bCXY057MsRby6d6ED-23" value="" style="line;strokeWidth=1;fillColor=none;align=left;verticalAlign=middle;spacingTop=-1;spacingLeft=3;spacingRight=3;rotatable=0;labelPosition=right;points=[];portConstraint=eastwest;strokeColor=inherit;" parent="-s_bCXY057MsRby6d6ED-21" vertex="1">
          <mxGeometry y="120" width="210" height="8" as="geometry" />
        </mxCell>
        <mxCell id="-s_bCXY057MsRby6d6ED-24" value="+ getters(): Datatype&#xa;+ setters(DataType): void&#xa;+ addHost(Host): void&#xa;" style="text;strokeColor=none;fillColor=none;align=left;verticalAlign=top;spacingLeft=4;spacingRight=4;overflow=hidden;rotatable=0;points=[[0,0.5],[1,0.5]];portConstraint=eastwest;" parent="-s_bCXY057MsRby6d6ED-21" vertex="1">
          <mxGeometry y="128" width="210" height="52" as="geometry" />
        </mxCell>
        <mxCell id="-s_bCXY057MsRby6d6ED-25" value="Host" style="swimlane;fontStyle=1;align=center;verticalAlign=top;childLayout=stackLayout;horizontal=1;startSize=26;horizontalStack=0;resizeParent=1;resizeParentMax=0;resizeLast=0;collapsible=1;marginBottom=0;" parent="1" vertex="1">
          <mxGeometry x="740" y="520" width="160" height="180" as="geometry" />
        </mxCell>
        <mxCell id="-s_bCXY057MsRby6d6ED-26" value="- hostId: int&#xa;- firstName: String&#xa;- lastName: String&#xa;- registrationDate: Date&#xa;&#xa;" style="text;strokeColor=none;fillColor=none;align=left;verticalAlign=top;spacingLeft=4;spacingRight=4;overflow=hidden;rotatable=0;points=[[0,0.5],[1,0.5]];portConstraint=eastwest;" parent="-s_bCXY057MsRby6d6ED-25" vertex="1">
          <mxGeometry y="26" width="160" height="74" as="geometry" />
        </mxCell>
        <mxCell id="-s_bCXY057MsRby6d6ED-27" value="" style="line;strokeWidth=1;fillColor=none;align=left;verticalAlign=middle;spacingTop=-1;spacingLeft=3;spacingRight=3;rotatable=0;labelPosition=right;points=[];portConstraint=eastwest;strokeColor=inherit;" parent="-s_bCXY057MsRby6d6ED-25" vertex="1">
          <mxGeometry y="100" width="160" height="20" as="geometry" />
        </mxCell>
        <mxCell id="-s_bCXY057MsRby6d6ED-28" value="+ getters(): Datatype&#xa;+ setters(DataType): void&#xa;- parseDate(String): Date&#xa;&#xa;&#xa;" style="text;strokeColor=none;fillColor=none;align=left;verticalAlign=top;spacingLeft=4;spacingRight=4;overflow=hidden;rotatable=0;points=[[0,0.5],[1,0.5]];portConstraint=eastwest;" parent="-s_bCXY057MsRby6d6ED-25" vertex="1">
          <mxGeometry y="120" width="160" height="60" as="geometry" />
        </mxCell>
        <mxCell id="-s_bCXY057MsRby6d6ED-31" value="" style="endArrow=block;endFill=1;html=1;edgeStyle=orthogonalEdgeStyle;align=left;verticalAlign=top;rounded=0;entryX=-0.006;entryY=0.867;entryDx=0;entryDy=0;entryPerimeter=0;" parent="1" target="-s_bCXY057MsRby6d6ED-14" edge="1">
          <mxGeometry x="-1" relative="1" as="geometry">
            <mxPoint x="220" y="324.5" as="sourcePoint" />
            <mxPoint x="380" y="324.5" as="targetPoint" />
            <Array as="points">
              <mxPoint x="250" y="325" />
              <mxPoint x="250" y="111" />
              <mxPoint x="340" y="111" />
            </Array>
          </mxGeometry>
        </mxCell>
        <mxCell id="-s_bCXY057MsRby6d6ED-32" value="1" style="edgeLabel;resizable=0;html=1;align=left;verticalAlign=bottom;" parent="-s_bCXY057MsRby6d6ED-31" connectable="0" vertex="1">
          <mxGeometry x="-1" relative="1" as="geometry" />
        </mxCell>
        <mxCell id="Xm0LZEBTVrGZmt8geaEU-1" value="*" style="edgeLabel;html=1;align=center;verticalAlign=middle;resizable=0;points=[];" parent="-s_bCXY057MsRby6d6ED-31" connectable="0" vertex="1">
          <mxGeometry x="0.9194" y="2" relative="1" as="geometry">
            <mxPoint as="offset" />
          </mxGeometry>
        </mxCell>
        <mxCell id="-s_bCXY057MsRby6d6ED-33" value="" style="endArrow=block;endFill=1;html=1;edgeStyle=orthogonalEdgeStyle;align=left;verticalAlign=top;rounded=0;entryX=0;entryY=0.68;entryDx=0;entryDy=0;entryPerimeter=0;" parent="1" source="-s_bCXY057MsRby6d6ED-12" target="-s_bCXY057MsRby6d6ED-22" edge="1">
          <mxGeometry x="-1" relative="1" as="geometry">
            <mxPoint x="230" y="334.5" as="sourcePoint" />
            <mxPoint x="360" y="567" as="targetPoint" />
            <Array as="points">
              <mxPoint x="250" y="335" />
              <mxPoint x="250" y="554" />
            </Array>
          </mxGeometry>
        </mxCell>
        <mxCell id="-s_bCXY057MsRby6d6ED-34" value="1" style="edgeLabel;resizable=0;html=1;align=left;verticalAlign=bottom;" parent="-s_bCXY057MsRby6d6ED-33" connectable="0" vertex="1">
          <mxGeometry x="-1" relative="1" as="geometry" />
        </mxCell>
        <mxCell id="Xm0LZEBTVrGZmt8geaEU-2" value="*" style="edgeLabel;html=1;align=center;verticalAlign=middle;resizable=0;points=[];" parent="-s_bCXY057MsRby6d6ED-33" connectable="0" vertex="1">
          <mxGeometry x="0.9557" y="2" relative="1" as="geometry">
            <mxPoint as="offset" />
          </mxGeometry>
        </mxCell>
        <mxCell id="-s_bCXY057MsRby6d6ED-47" value="belongsTo" style="endArrow=block;endFill=1;html=1;edgeStyle=orthogonalEdgeStyle;align=left;verticalAlign=top;rounded=0;" parent="1" edge="1">
          <mxGeometry x="-1" relative="1" as="geometry">
            <mxPoint x="560" y="580" as="sourcePoint" />
            <mxPoint x="740" y="580" as="targetPoint" />
            <Array as="points">
              <mxPoint x="560" y="584" />
              <mxPoint x="560" y="580" />
            </Array>
          </mxGeometry>
        </mxCell>
        <mxCell id="-s_bCXY057MsRby6d6ED-48" value="*" style="edgeLabel;resizable=0;html=1;align=left;verticalAlign=bottom;" parent="-s_bCXY057MsRby6d6ED-47" connectable="0" vertex="1">
          <mxGeometry x="-1" relative="1" as="geometry" />
        </mxCell>
        <mxCell id="-s_bCXY057MsRby6d6ED-49" value="1" style="edgeLabel;html=1;align=center;verticalAlign=middle;resizable=0;points=[];" parent="-s_bCXY057MsRby6d6ED-47" vertex="1" connectable="0">
          <mxGeometry x="0.8238" y="2" relative="1" as="geometry">
            <mxPoint x="-10" as="offset" />
          </mxGeometry>
        </mxCell>
        <mxCell id="glzbXAZfn2f4P4hfYy4y-4" value="*" style="text;html=1;align=center;verticalAlign=middle;resizable=0;points=[];autosize=1;strokeColor=none;fillColor=none;" parent="1" vertex="1">
          <mxGeometry x="427.5" y="238" width="30" height="30" as="geometry" />
        </mxCell>
        <mxCell id="glzbXAZfn2f4P4hfYy4y-7" value="" style="endArrow=classic;html=1;rounded=0;" parent="1" target="-s_bCXY057MsRby6d6ED-17" edge="1">
          <mxGeometry width="50" height="50" relative="1" as="geometry">
            <mxPoint x="430" y="210" as="sourcePoint" />
            <mxPoint x="455" y="200" as="targetPoint" />
          </mxGeometry>
        </mxCell>
        <mxCell id="glzbXAZfn2f4P4hfYy4y-8" value="1" style="text;html=1;align=center;verticalAlign=middle;resizable=0;points=[];autosize=1;strokeColor=none;fillColor=none;" parent="1" vertex="1">
          <mxGeometry x="427.5" y="200" width="30" height="30" as="geometry" />
        </mxCell>
        <mxCell id="glzbXAZfn2f4P4hfYy4y-9" value="" style="endArrow=classic;html=1;rounded=0;entryX=0.367;entryY=-0.009;entryDx=0;entryDy=0;entryPerimeter=0;" parent="1" target="-s_bCXY057MsRby6d6ED-21" edge="1">
          <mxGeometry width="50" height="50" relative="1" as="geometry">
            <mxPoint x="426.67" y="450" as="sourcePoint" />
            <mxPoint x="426.67" y="550" as="targetPoint" />
            <Array as="points">
              <mxPoint x="426.67" y="500" />
            </Array>
          </mxGeometry>
        </mxCell>
        <mxCell id="glzbXAZfn2f4P4hfYy4y-10" value="*" style="text;html=1;align=center;verticalAlign=middle;resizable=0;points=[];autosize=1;strokeColor=none;fillColor=none;" parent="1" vertex="1">
          <mxGeometry x="435" y="448" width="30" height="30" as="geometry" />
        </mxCell>
        <mxCell id="glzbXAZfn2f4P4hfYy4y-11" value="1" style="text;html=1;align=center;verticalAlign=middle;resizable=0;points=[];autosize=1;strokeColor=none;fillColor=none;" parent="1" vertex="1">
          <mxGeometry x="435" y="538" width="30" height="30" as="geometry" />
        </mxCell>
      </root>
    </mxGraphModel>
  </diagram>
</mxfile>
